<?xml version="1.0" encoding="utf-8"?>
<!-- Generator: Adobe Illustrator 24.3.0, SVG Export Plug-In . SVG Version: 6.00 Build 0)  -->
<svg version="1.1" id="圖層_1" xmlns="http://www.w3.org/2000/svg" xmlns:xlink="http://www.w3.org/1999/xlink" x="0px" y="0px"
	 viewBox="0 0 537.43 146.3" style="enable-background:new 0 0 537.43 146.3;" xml:space="preserve">
<g>
	<g>
		<path d="M461.72,121.84c0,7.16,0,14.06,0,21.15c-131.22,0-262.27,0-393.63,0c0-6.91,0-13.9,0-21.15
			C199.13,121.84,330.27,121.84,461.72,121.84z"/>
		<path d="M471.92,1.26c6.59,0,13,0,19.82,0c0,17.24,0,34.39,0,51.54c0.32,0.05,0.64,0.11,0.96,0.16c1.18-4.33,2.38-8.66,3.54-13
			c3.22-11.95,6.48-23.89,9.59-35.87c0.55-2.11,1.23-3.16,3.66-3.08c5.82,0.19,11.65,0.06,18.05,0.06c-0.39,1.69-0.64,3.07-1.04,4.4
			c-5.9,19.81-11.77,39.62-17.77,59.4c-0.91,3.01-0.8,5.69,0.23,8.64c7.68,21.97,15.25,43.98,22.84,65.98
			c0.35,1.03,0.6,2.09,1.03,3.63c-6.76,0-13.16,0.14-19.54-0.15c-0.96-0.04-2.25-1.95-2.69-3.23c-5.84-17.1-11.56-34.25-17.31-51.38
			c-0.18-0.55-0.45-1.07-1.2-1.53c0,18.62,0,37.24,0,56.11c-6.84,0-13.37,0-20.17,0C471.92,95.89,471.92,48.8,471.92,1.26z"/>
		<path d="M141.93,112.16c0-36.04,0-71.84,0-108.1c5.01,0,9.82-0.14,14.61,0.12c0.9,0.05,2.03,1.57,2.52,2.65
			c4.73,10.49,9.34,21.02,14.27,32.18c1.52-3.33,2.8-6.11,4.05-8.91c3.37-7.59,6.85-15.13,10-22.8c1.09-2.64,2.53-3.49,5.27-3.32
			c3.93,0.24,7.88,0.06,12.01,0.06c0,36.22,0,72.05,0,108.15c-5.89,0-11.77,0-17.88,0c0-21.73,0-43.41,0-65.09
			c-0.15-0.05-0.31-0.1-0.46-0.15c-4.17,9.96-8.33,19.92-12.88,30.79c-4.69-11.12-9.01-21.37-13.65-32.37c0,22.76,0,44.62,0,66.8
			C154.11,112.16,148.23,112.16,141.93,112.16z"/>
		<path d="M339.18,4.01c10.77,0.58,21.47-1.49,31.84,2.17c14.31,5.06,22.41,19.3,18.5,32.53c-1.95,6.59-6.28,11.42-11.88,15.49
			c6.91,4.01,12.01,9.33,14.2,17.07c5.56,19.68-6.66,37.97-27.66,40.36c-8.16,0.93-16.51,0.15-24.99,0.15
			C339.18,76.2,339.18,40.32,339.18,4.01z M357.78,95.64c6.09,0.08,11.42-1.28,14.36-6.8c3.28-6.14,2.87-12.51-1.12-18.26
			c-3.14-4.53-7.89-5.79-13.24-5.56C357.78,75.4,357.78,85.38,357.78,95.64z M357.75,47.79c8.61,0.11,14.39-5.87,13.98-14.12
			c-0.4-8.06-6.01-13.09-13.98-12.4C357.75,30.01,357.75,38.77,357.75,47.79z"/>
		<path d="M59.57,115.06c0,7.11,0.1,14.38-0.11,21.63c-0.03,1.05-1.34,2.26-2.33,3.06c-13.28,10.69-33.02,7.98-43.18-5.9
			c-6.46-8.82-9.61-19.01-11.33-29.58C-1.2,80.79-1.09,57.34,4.6,34.12c2.05-8.35,5.29-16.27,10.81-23.05
			c10.26-12.6,27.67-14.74,40.58-4.9c0.89,0.68,1.93,1.87,1.95,2.84c0.17,7.14,0.09,14.29,0.09,21.94
			c-2.49-1.89-4.46-3.55-6.58-4.97C39.47,18,29.03,21.28,25.51,35.2c-2.43,9.63-3.38,19.77-3.88,29.73
			c-0.72,14.24-0.62,28.54,2.89,42.54c0.6,2.39,1.38,4.76,2.36,7.03c3.86,8.93,11.94,12.33,20.79,8.26
			C51.83,120.83,55.47,117.75,59.57,115.06z"/>
		<path d="M130.84,112.26c-6,0-11.91,0-18.05,0c-1.37-7.56-2.72-14.96-4.1-22.56c-5.83,0-11.61,0-17.67,0
			c-1.3,6.62-2.71,13.24-3.85,19.91c-0.37,2.14-1.09,2.96-3.31,2.9c-5.05-0.14-10.11-0.04-15.75-0.04
			c7.51-36.6,14.91-72.67,22.4-109.14c5.8,0,11.47-0.09,17.14,0.12c0.67,0.02,1.65,1.58,1.86,2.55c2.97,14.04,5.86,28.1,8.73,42.17
			c4.21,20.6,8.4,41.21,12.58,61.82C130.97,110.68,130.84,111.42,130.84,112.26z M105.32,72.34c-1.78-9.57-3.51-18.83-5.24-28.09
			c-0.28,0.04-0.57,0.08-0.85,0.13c-1.67,9.27-3.34,18.54-5.04,27.96C98.13,72.34,101.53,72.34,105.32,72.34z"/>
		<path d="M439.48,3.3c7.43,36.49,14.8,72.71,22.25,109.33c-5.86,0-11.42,0.11-16.97-0.13c-0.75-0.03-1.85-1.7-2.06-2.75
			c-1.16-5.82-2.17-11.68-3.08-17.55c-0.3-1.95-1.04-2.77-3.1-2.7c-4.21,0.14-8.44,0.14-12.65,0c-2.12-0.07-2.71,0.89-3.04,2.78
			c-1.18,6.69-2.52,13.35-3.83,20.17c-6.18,0-12.2,0-18.48,0c2.59-12.8,5.11-25.4,7.7-38c4.65-22.66,9.39-45.31,13.95-67.99
			c0.49-2.46,1.37-3.3,3.84-3.21C428.95,3.42,433.91,3.3,439.48,3.3z M430.45,43.91c-0.23-0.03-0.46-0.05-0.7-0.08
			c-1.75,9.51-3.5,19.03-5.28,28.71c3.93,0,7.42,0,11.21,0C433.9,62.78,432.17,53.34,430.45,43.91z"/>
		<path d="M267.41,112.23c-15.17,0-30.24,0-45.52,0c0-36.06,0-71.88,0-107.94c14.79,0,29.39,0,44.31,0c0,5.37,0,10.72,0,16.5
			c-8.49,0-16.86,0-25.43,0c0,9.16,0,17.9,0,26.99c7.77,0,15.41,0,23.51,0c0,5.14,0.13,9.95-0.14,14.73c-0.04,0.73-1.94,1.9-3,1.93
			c-6.68,0.18-13.37,0.09-20.31,0.09c0,10.42,0,20.52,0,31.03c8.75,0,17.49,0,26.58,0C267.41,101.31,267.41,106.66,267.41,112.23z"
			/>
		<path d="M302.24,95.6c8.86,0,17.14,0,25.77,0c0,5.62,0,10.98,0,16.6c-14.71,0-29.38,0-44.27,0c0-36.02,0-71.82,0-107.89
			c6.15,0,12.16,0,18.51,0C302.24,34.62,302.24,64.83,302.24,95.6z"/>
	</g>
	<g>
		<path d="M528.62,60.17c1.48,0,2.92,0.38,4.33,1.14c1.41,0.76,2.51,1.84,3.29,3.26c0.79,1.41,1.18,2.89,1.18,4.42
			c0,1.52-0.39,2.98-1.16,4.38c-0.78,1.4-1.86,2.49-3.26,3.26c-1.4,0.78-2.86,1.16-4.39,1.16s-2.99-0.39-4.39-1.16
			c-1.4-0.77-2.49-1.86-3.26-3.26c-0.78-1.4-1.17-2.86-1.17-4.38c0-1.53,0.39-3.01,1.19-4.42c0.79-1.41,1.89-2.5,3.3-3.26
			C525.7,60.55,527.14,60.17,528.62,60.17z M528.62,61.63c-1.24,0-2.44,0.32-3.61,0.95s-2.09,1.54-2.75,2.72
			c-0.66,1.18-0.99,2.41-0.99,3.68c0,1.27,0.33,2.49,0.97,3.65c0.65,1.16,1.56,2.07,2.73,2.72s2.39,0.97,3.66,0.97
			c1.27,0,2.49-0.32,3.66-0.97c1.17-0.65,2.07-1.56,2.72-2.72s0.97-2.38,0.97-3.65c0-1.28-0.33-2.5-0.99-3.68s-1.58-2.09-2.75-2.72
			C531.06,61.95,529.85,61.63,528.62,61.63z M524.76,73.86v-9.48h3.26c1.11,0,1.92,0.09,2.42,0.26s0.9,0.48,1.19,0.92
			c0.3,0.44,0.44,0.9,0.44,1.39c0,0.69-0.25,1.3-0.74,1.81c-0.5,0.51-1.15,0.8-1.97,0.86c0.33,0.14,0.6,0.31,0.81,0.5
			c0.38,0.37,0.85,1,1.4,1.88l1.16,1.86h-1.87l-0.84-1.5c-0.66-1.18-1.2-1.91-1.6-2.21c-0.28-0.22-0.69-0.33-1.23-0.33h-0.9v4.03
			H524.76z M526.29,68.52h1.86c0.89,0,1.49-0.13,1.82-0.4c0.32-0.26,0.48-0.62,0.48-1.05c0-0.28-0.08-0.53-0.23-0.75
			c-0.16-0.22-0.37-0.39-0.65-0.5s-0.79-0.16-1.54-0.16h-1.74V68.52z"/>
	</g>
</g>
</svg>
